<?xml version="1.0" encoding="iso-8859-1"?><svg viewBox="0 0 512 512" xmlns="http://www.w3.org/2000/svg" xmlns:xlink="http://www.w3.org/1999/xlink"><style>:root>svg{display:none}:root>svg:target{display:block}</style><svg viewBox="0 0 512.002 512.002" id="apple-watch" xmlns="http://www.w3.org/2000/svg"><path d="M325.91 98.469c-174.141.898-169.654-2.025-184.697 2.635h-.441c23.714-7.272 28.379-28.279 28.97-31.241l3.708-55.31c.557-3.901 3.498-7.363 7.632-8.275 37.321-8.233 87.33-8.116 122.626-1.124a7.935 7.935 0 016.313 6.667l4.021 57.637s3.151 22.746 27.303 31.068a58.971 58.971 0 00-15.435-2.057z" fill="#f94a46"/><path d="M214.67 8.197l-3.708 61.812c-.473 2.647-3.562 18.184-16.904 28.461-30.664.599-39.205-1.591-52.845 2.635h-.441c23.714-7.272 28.379-28.279 28.97-31.241.992-14.561 3.604-54.726 3.827-55.85 1.321-6.628 7.644-7.802 7.541-7.742 12.725-2.805 24.365-4.264 37.255-5.226-2.074 1.839-3.361 4.541-3.695 7.151z" fill="#ea3939"/><g fill="#ccc"><path d="M399.808 177.735h-3.16c-6.953 0-12.641 5.689-12.641 12.641v18.962c0 6.953 5.689 12.641 12.641 12.641h3.16c6.953 0 12.641-5.688 12.641-12.641v-18.962c.001-6.952-5.688-12.641-12.641-12.641zM399.808 266.926h-3.16c-6.953 0-12.641 5.688-12.641 12.641v48.809c0 6.953 5.689 12.641 12.641 12.641h3.16c6.953 0 12.641-5.688 12.641-12.641v-48.809c.001-6.952-5.688-12.641-12.641-12.641z"/></g><path d="M399.808 307.213h-3.16c-6.953 0-12.641-5.688-12.641-12.641v33.805c0 6.953 5.689 12.641 12.641 12.641h3.16c6.953 0 12.641-5.688 12.641-12.641v-33.805c.001 6.953-5.688 12.641-12.641 12.641z" fill="#bababa"/><path d="M158.681 413.541a58.934 58.934 0 01-17.467-2.635h-.441c23.714 7.272 28.379 28.279 28.97 31.241.989 14.525 3.605 54.729 3.827 55.85 1.321 6.628 7.644 7.802 7.541 7.742 37.297 8.222 87.392 8.092 122.597 1.118a7.935 7.935 0 006.313-6.667l4.021-57.637s3.151-22.746 27.303-31.068c-13.511 3.657-7.349 1.342-182.664 2.056z" fill="#f94a46"/><path d="M214.67 503.813l-3.708-61.812c-.473-2.647-3.562-18.184-16.904-28.461-30.664-.599-39.205 1.591-52.845-2.635h-.441c23.714 7.272 28.379 28.279 28.97 31.241l3.708 55.31c.557 3.893 3.49 7.362 7.632 8.275 12.627 2.785 24.231 4.258 37.284 5.232-2.075-1.837-3.362-4.54-3.696-7.15z" fill="#ea3939"/><path d="M325.91 415.601H158.68c-32.603 0-59.127-26.524-59.127-59.126v-200.94c0-32.602 26.524-59.127 59.127-59.127h167.23c32.603 0 59.126 26.524 59.126 59.127v200.94c.001 32.602-26.523 59.126-59.126 59.126z" fill="#efefef"/><path d="M127.997 356.475v-200.94c0-32.602 26.524-59.126 59.126-59.126H158.68c-32.603 0-59.126 26.524-59.126 59.126v200.94c0 32.602 26.524 59.126 59.126 59.126h28.443c-32.602 0-59.126-26.524-59.126-59.126z" fill="#ddd"/><path d="M158.681 124.852c-16.919 0-30.684 13.765-30.684 30.684v200.94c0 16.919 13.765 30.684 30.684 30.684h167.23c16.919 0 30.684-13.765 30.684-30.684v-200.94c0-16.919-13.765-30.684-30.684-30.684h-167.23z" fill="#ccc"/><path d="M158.793 356.475v-200.94c0-16.919 13.765-30.683 30.683-30.683h-30.795c-16.919 0-30.684 13.765-30.684 30.683v200.94c0 16.919 13.765 30.684 30.684 30.684h30.795c-16.919 0-30.683-13.765-30.683-30.684z" fill="#bababa"/><g fill="#efefef"><path d="M298.549 366.994H186.042a7.727 7.727 0 010-15.454h112.507a7.727 7.727 0 010 15.454z"/><circle cx="166.972" cy="163.581" r="14.158"/></g><path d="M166.975 163.577c-2.619-4.536-2.43-9.912.006-14.147a14.066 14.066 0 00-7.085 1.886c-6.771 3.909-9.091 12.568-5.182 19.34 3.91 6.771 12.568 9.092 19.34 5.182a14.084 14.084 0 005.176-5.193c-4.887-.007-9.637-2.532-12.255-7.068z" fill="#ddd"/><circle cx="241.932" cy="255.401" r="78.31" fill="#898989"/><path d="M200.882 279.1c-18.978-32.871-11.409-73.777 16.045-97.914-47.052 15.908-67.432 70.724-42.812 113.368 21.624 37.453 69.515 50.285 106.968 28.662a78.663 78.663 0 0012.617-9.054c-34.63 11.707-73.84-2.191-92.818-35.062z" fill="#777"/><g fill="#535454"><path d="M240.9 263.732a7.727 7.727 0 01-7.727-7.727v-39.942a7.727 7.727 0 0115.454 0v39.942a7.726 7.726 0 01-7.727 7.727z"/><path d="M277.197 298.24a7.693 7.693 0 01-5.095-1.921l-36.3-31.875a7.728 7.728 0 0110.197-11.612l36.3 31.875a7.728 7.728 0 01-5.102 13.533z"/></g><circle cx="316.882" cy="163.581" r="14.158" fill="#efefef"/><path d="M316.886 163.577c-2.619-4.536-2.43-9.912.006-14.147-10.797-.016-17.748 11.733-12.267 21.225 3.91 6.771 12.568 9.092 19.34 5.182a14.084 14.084 0 005.176-5.193c-4.886-.006-9.636-2.531-12.255-7.067z" fill="#ddd"/><circle cx="241.332" cy="256.011" r="14.158" fill="#efefef"/><path d="M241.336 241.861c-10.797-.016-17.748 11.733-12.267 21.225 3.91 6.772 12.568 9.092 19.34 5.182a14.084 14.084 0 005.176-5.193c-10.89-.016-17.691-11.757-12.249-21.214z" fill="#ddd"/></svg><svg viewBox="0 0 512 512" id="imac" xmlns="http://www.w3.org/2000/svg"><path d="M195.71 433.916c-.867 7.143-4.782 14.592-10.737 18.631l-9.792 6.642h161.637l-9.792-6.642c-5.955-4.039-9.871-11.488-10.737-18.632l-4.757-40.244H200.467l-4.757 40.245z" fill="#ccc"/><path d="M227.304 438.768l4.757-45.097h-31.594l-4.757 40.245c-.867 7.143-4.782 14.592-10.737 18.631l-9.791 6.642h41.945c5.636-4.614 9.338-12.673 10.177-20.421z" fill="#bababa"/><path d="M482.88 394.701H29.12c-16.016 0-29.12-13.104-29.12-29.12V53.659c0-16.016 13.104-29.12 29.12-29.12h453.76c16.016 0 29.12 13.104 29.12 29.12v311.922c0 16.016-13.104 29.12-29.12 29.12z" fill="#efefef"/><path d="M29.436 365.581V53.659c0-16.016 13.104-29.12 29.12-29.12H29.12C13.104 24.539 0 37.643 0 53.659v311.923c0 16.016 13.104 29.12 29.12 29.12h29.436c-16.016-.001-29.12-13.105-29.12-29.121z" fill="#ddd"/><path d="M482.88 24.539H29.12C13.104 24.539 0 37.643 0 53.659V335.89h512V53.659c0-16.016-13.104-29.12-29.12-29.12z" fill="#666"/><path d="M0 53.659V335.89h29.435V53.659c0-16.016 13.104-29.12 29.12-29.12-30.348.05-34.415-1.026-42.641 3.196C6.491 32.571 0 42.391 0 53.659z" fill="#535454"/><path d="M477.595 306.5H34.405a4.97 4.97 0 01-4.969-4.969V58.737a4.969 4.969 0 014.969-4.969h443.19a4.97 4.97 0 014.969 4.969V301.53a4.969 4.969 0 01-4.969 4.97z" fill="#a4d9f4"/><path d="M60.343 301.53V58.737a4.969 4.969 0 014.969-4.969H34.405a4.97 4.97 0 00-4.969 4.969V301.53a4.97 4.97 0 004.969 4.969h30.907a4.968 4.968 0 01-4.969-4.969z" fill="#7cc9e8"/><path d="M351.277 458.158H160.723c-8.083 0-14.695 6.613-14.695 14.695s6.613 14.695 14.695 14.695h190.554c8.082 0 14.695-6.613 14.695-14.695s-6.613-14.695-14.695-14.695z" fill="#efefef"/><path d="M203.621 472.854c0-8.082 6.613-14.695 14.695-14.695h-57.594c-8.083 0-14.695 6.613-14.695 14.695s6.613 14.695 14.695 14.695h57.594c-8.082 0-14.695-6.613-14.695-14.695z" fill="#ddd"/><circle cx="256" cy="365.26" r="7.782" fill="#ccc"/><path d="M29.436 58.737v24.26h453.129v-24.26a4.97 4.97 0 00-4.97-4.969H34.405a4.969 4.969 0 00-4.969 4.969z" fill="#70b5e8"/><g fill="#52a5d8"><path d="M29.436 82.997h30.907v-24.26a4.969 4.969 0 014.969-4.969H34.405c-2.478 0-4.516 1.82-4.891 4.192-.157.991-.039-.858-.078 25.037zM145.86 283.763h-20.676a3.457 3.457 0 01-3.446-3.446v-20.676a3.457 3.457 0 013.446-3.446h20.676a3.457 3.457 0 013.446 3.446v20.676a3.457 3.457 0 01-3.446 3.446z"/></g><path d="M242.243 283.763h-20.676a3.457 3.457 0 01-3.446-3.446v-20.676a3.457 3.457 0 013.446-3.446h20.676a3.457 3.457 0 013.446 3.446v20.676a3.457 3.457 0 01-3.446 3.446z" fill="#898989"/><path d="M338.625 283.763h-20.676a3.457 3.457 0 01-3.446-3.446v-20.676a3.457 3.457 0 013.446-3.446h20.676a3.457 3.457 0 013.446 3.446v20.676a3.457 3.457 0 01-3.446 3.446z" fill="#52a5d8"/><path d="M194.051 283.763h-20.676a3.457 3.457 0 01-3.446-3.446v-20.676a3.457 3.457 0 013.446-3.446h20.676a3.457 3.457 0 013.446 3.446v20.676a3.456 3.456 0 01-3.446 3.446z" fill="#f94a46"/><path d="M290.434 283.763h-20.676a3.457 3.457 0 01-3.446-3.446v-20.676a3.457 3.457 0 013.446-3.446h20.676a3.457 3.457 0 013.446 3.446v20.676a3.457 3.457 0 01-3.446 3.446z" fill="#ffb70d"/><path d="M386.816 283.763H366.14a3.457 3.457 0 01-3.446-3.446v-20.676a3.457 3.457 0 013.446-3.446h20.676a3.457 3.457 0 013.446 3.446v20.676a3.456 3.456 0 01-3.446 3.446z" fill="#92b620"/></svg><svg viewBox="0 0 512 512" id="ipad" xmlns="http://www.w3.org/2000/svg"><path d="M30.905 0C13.907 0 0 13.907 0 30.905v450.19C0 498.093 13.907 512 30.905 512h143.7V0h-143.7z" fill="#efefef"/><path d="M29.982 481.095V30.905C29.982 13.907 43.889 0 60.887 0H30.905C13.907 0 0 13.907 0 30.905v450.19C0 498.093 13.907 512 30.905 512h29.982c-16.998 0-30.905-13.907-30.905-30.905z" fill="#ddd"/><path d="M481.095 512H174.606c-16.998 0-30.905-13.907-30.905-30.905V30.905C143.701 13.907 157.608 0 174.606 0h306.489C498.093 0 512 13.907 512 30.905v450.19C512 498.093 498.093 512 481.095 512z" fill="#535454"/><path d="M170.844 481.095V30.905C170.844 13.907 184.751 0 201.749 0h-27.143c-16.998 0-30.905 13.907-30.905 30.905v450.19c0 16.998 13.907 30.905 30.905 30.905h27.143c-16.998 0-30.905-13.907-30.905-30.905z" fill="#444443"/><path d="M477.58 45.239H178.121a7.277 7.277 0 00-7.277 7.277v385.299a7.277 7.277 0 007.277 7.277H477.58a7.277 7.277 0 007.277-7.277V52.516a7.278 7.278 0 00-7.277-7.277z" fill="#a4d9f4"/><path d="M201.749 437.815V52.516a7.277 7.277 0 017.277-7.277h-30.905a7.277 7.277 0 00-7.277 7.277v385.299a7.277 7.277 0 007.277 7.277h30.905a7.278 7.278 0 01-7.277-7.277z" fill="#7cc9e8"/><g fill="#666"><path d="M327.85 501.007c-12.214 0-22.15-9.936-22.15-22.15s9.937-22.15 22.15-22.15 22.15 9.936 22.15 22.15-9.936 22.15-22.15 22.15zm0-28.847a6.705 6.705 0 00-6.697 6.697 6.705 6.705 0 006.697 6.697 6.705 6.705 0 006.697-6.697 6.705 6.705 0 00-6.697-6.697z"/><circle cx="44.41" cy="45.24" r="14.423"/></g><path d="M44.406 45.239c-2.668-4.621-2.476-10.098.006-14.412a14.343 14.343 0 00-7.218 1.921c-6.899 3.983-9.262 12.804-5.279 19.703s12.804 9.262 19.703 5.279a14.337 14.337 0 005.273-5.291c-4.978-.007-9.818-2.579-12.485-7.2z" fill="#535454"/><path d="M327.847 31.215c-.505 0-1.01-.051-1.504-.155a7.39 7.39 0 01-1.453-.443 6.924 6.924 0 01-1.329-.711 7.477 7.477 0 01-1.175-.958 7.03 7.03 0 01-.958-1.174 7.915 7.915 0 01-.711-1.329 8.031 8.031 0 01-.443-1.443 7.553 7.553 0 010-3.029 7.838 7.838 0 011.154-2.771c.278-.433.598-.824.958-1.174.361-.361.752-.68 1.175-.969a8.238 8.238 0 011.329-.711 8.238 8.238 0 011.453-.433c2.504-.515 5.182.31 6.975 2.113.35.35.68.741.958 1.174.278.413.515.865.711 1.329.196.464.34.958.443 1.442.093.505.144 1.01.144 1.515s-.051 1.009-.144 1.514a8.031 8.031 0 01-.443 1.443 7.876 7.876 0 01-1.669 2.503 7.779 7.779 0 01-5.471 2.267z" fill="#666"/><path d="M477.58 45.239H178.121a7.277 7.277 0 00-7.277 7.277v20.718h314.013V52.516a7.278 7.278 0 00-7.277-7.277z" fill="#70b5e8"/><path d="M209.026 45.239h-30.905a7.277 7.277 0 00-7.277 7.277v20.718h30.905V52.516a7.277 7.277 0 017.277-7.277z" fill="#52a5d8"/><path d="M239.329 417.812h-20.676a3.457 3.457 0 01-3.446-3.446V393.69a3.457 3.457 0 013.446-3.446h20.676a3.457 3.457 0 013.446 3.446v20.676a3.456 3.456 0 01-3.446 3.446z" fill="#92b620"/><g fill="#70b5e8"><path d="M305.235 417.812h-20.676a3.457 3.457 0 01-3.446-3.446V393.69a3.457 3.457 0 013.446-3.446h20.676a3.457 3.457 0 013.446 3.446v20.676a3.455 3.455 0 01-3.446 3.446zM371.141 417.812h-20.676a3.457 3.457 0 01-3.446-3.446V393.69a3.457 3.457 0 013.446-3.446h20.676a3.457 3.457 0 013.446 3.446v20.676a3.455 3.455 0 01-3.446 3.446z"/></g><path d="M437.048 417.812h-20.676a3.457 3.457 0 01-3.446-3.446V393.69a3.457 3.457 0 013.446-3.446h20.676a3.457 3.457 0 013.446 3.446v20.676a3.456 3.456 0 01-3.446 3.446z" fill="#ffb70d"/><path d="M239.329 309.454h-20.676a3.457 3.457 0 01-3.446-3.446v-20.676a3.457 3.457 0 013.446-3.446h20.676a3.457 3.457 0 013.446 3.446v20.676a3.456 3.456 0 01-3.446 3.446z" fill="#898989"/><path d="M305.235 309.454h-20.676a3.457 3.457 0 01-3.446-3.446v-20.676a3.457 3.457 0 013.446-3.446h20.676a3.457 3.457 0 013.446 3.446v20.676a3.455 3.455 0 01-3.446 3.446z" fill="#f94a46"/><path d="M371.141 309.454h-20.676a3.457 3.457 0 01-3.446-3.446v-20.676a3.457 3.457 0 013.446-3.446h20.676a3.457 3.457 0 013.446 3.446v20.676a3.455 3.455 0 01-3.446 3.446z" fill="#70b5e8"/><path d="M437.048 309.454h-20.676a3.457 3.457 0 01-3.446-3.446v-20.676a3.457 3.457 0 013.446-3.446h20.676a3.457 3.457 0 013.446 3.446v20.676a3.456 3.456 0 01-3.446 3.446z" fill="#ffb70d"/><path d="M239.329 253.886h-20.676a3.457 3.457 0 01-3.446-3.446v-20.676a3.457 3.457 0 013.446-3.446h20.676a3.457 3.457 0 013.446 3.446v20.676a3.457 3.457 0 01-3.446 3.446z" fill="#efefef"/><path d="M305.235 253.886h-20.676a3.457 3.457 0 01-3.446-3.446v-20.676a3.457 3.457 0 013.446-3.446h20.676a3.457 3.457 0 013.446 3.446v20.676a3.456 3.456 0 01-3.446 3.446z" fill="#ffb70d"/><path d="M371.141 253.886h-20.676a3.457 3.457 0 01-3.446-3.446v-20.676a3.457 3.457 0 013.446-3.446h20.676a3.457 3.457 0 013.446 3.446v20.676a3.456 3.456 0 01-3.446 3.446z" fill="#70b5e8"/><path d="M437.048 253.886h-20.676a3.457 3.457 0 01-3.446-3.446v-20.676a3.457 3.457 0 013.446-3.446h20.676a3.457 3.457 0 013.446 3.446v20.676a3.457 3.457 0 01-3.446 3.446z" fill="#efefef"/><path d="M239.329 198.317h-20.676a3.457 3.457 0 01-3.446-3.446v-20.676a3.457 3.457 0 013.446-3.446h20.676a3.457 3.457 0 013.446 3.446v20.676a3.457 3.457 0 01-3.446 3.446z" fill="#dda36f"/><path d="M305.235 198.317h-20.676a3.457 3.457 0 01-3.446-3.446v-20.676a3.457 3.457 0 013.446-3.446h20.676a3.457 3.457 0 013.446 3.446v20.676a3.456 3.456 0 01-3.446 3.446z" fill="#70b5e8"/><path d="M371.141 198.317h-20.676a3.457 3.457 0 01-3.446-3.446v-20.676a3.457 3.457 0 013.446-3.446h20.676a3.457 3.457 0 013.446 3.446v20.676a3.456 3.456 0 01-3.446 3.446z" fill="#f9d698"/><path d="M437.048 198.317h-20.676a3.457 3.457 0 01-3.446-3.446v-20.676a3.457 3.457 0 013.446-3.446h20.676a3.457 3.457 0 013.446 3.446v20.676a3.457 3.457 0 01-3.446 3.446z" fill="#70b5e8"/><path d="M239.329 142.749h-20.676a3.457 3.457 0 01-3.446-3.446v-20.676a3.457 3.457 0 013.446-3.446h20.676a3.457 3.457 0 013.446 3.446v20.676a3.457 3.457 0 01-3.446 3.446z" fill="#92b620"/><path d="M305.235 142.749h-20.676a3.457 3.457 0 01-3.446-3.446v-20.676a3.457 3.457 0 013.446-3.446h20.676a3.457 3.457 0 013.446 3.446v20.676a3.456 3.456 0 01-3.446 3.446z" fill="#f94a46"/><path d="M371.141 142.749h-20.676a3.457 3.457 0 01-3.446-3.446v-20.676a3.457 3.457 0 013.446-3.446h20.676a3.457 3.457 0 013.446 3.446v20.676a3.456 3.456 0 01-3.446 3.446z" fill="#ffb70d"/><path d="M437.048 142.749h-20.676a3.457 3.457 0 01-3.446-3.446v-20.676a3.457 3.457 0 013.446-3.446h20.676a3.457 3.457 0 013.446 3.446v20.676a3.457 3.457 0 01-3.446 3.446z" fill="#efefef"/></svg><svg viewBox="0 0 512.001 512.001" id="iphone" xmlns="http://www.w3.org/2000/svg"><path d="M97.211 0C70.804 0 49.32 21.484 49.32 47.891V464.11c0 26.406 21.484 47.89 47.891 47.89h137.787V0H97.211z" fill="#efefef"/><path d="M77.849 464.109V47.891C77.849 21.484 99.333 0 125.74 0H97.211C70.804 0 49.32 21.484 49.32 47.891V464.11c0 26.406 21.484 47.89 47.891 47.89h28.529c-26.407 0-47.891-21.484-47.891-47.891z" fill="#ddd"/><path d="M102.06 26.716c-13.316 0-24.211 10.895-24.211 24.211v56.664c0 13.316 10.895 24.211 24.211 24.211 13.316 0 24.211-10.895 24.211-24.211V50.927c0-13.316-10.895-24.211-24.211-24.211z" fill="#535454"/><path d="M102.06 107.59V50.927c0-8.913 4.885-16.735 12.105-20.937-16.082-9.36-36.316 2.407-36.316 20.937v56.664c0 18.521 20.223 30.304 36.316 20.937-7.22-4.203-12.105-12.025-12.105-20.938z" fill="#444443"/><path d="M414.789 0H234.997c-26.407 0-47.891 21.484-47.891 47.891V464.11c0 26.407 21.484 47.891 47.891 47.891h179.792c26.407 0 47.891-21.484 47.891-47.891V47.891C462.68 21.484 441.197 0 414.789 0z" fill="#535454"/><path d="M213.636 464.109V47.891C213.636 21.484 235.119 0 261.526 0h-26.529c-26.407 0-47.891 21.484-47.891 47.891V464.11c0 26.407 21.484 47.891 47.891 47.891h26.529c-26.407-.001-47.89-21.485-47.89-47.892z" fill="#444443"/><path d="M436.146 464.109c0 11.795-9.562 21.357-21.357 21.357H234.997c-11.795 0-21.357-9.562-21.357-21.357V47.891c0-11.795 9.562-21.357 21.357-21.357h22.407a7.992 7.992 0 017.992 7.992v5.068c0 6.8 5.563 12.363 12.363 12.363h94.267c6.8 0 12.363-5.563 12.363-12.363v-7.33a5.731 5.731 0 015.731-5.731h24.669c11.795 0 21.357 9.562 21.357 21.357v416.219z" fill="#a4d9f4"/><path d="M239.119 464.109V47.891c0-11.155 8.555-20.3 19.46-21.261-1.241-.184.079-.056-23.582-.096-11.795 0-21.357 9.562-21.357 21.357V464.11c0 11.795 9.562 21.357 21.357 21.357h25.478c-11.794-.001-21.356-9.562-21.356-21.358z" fill="#7cc9e8"/><g fill="#666"><path d="M355.99 34.261h-40.343a7.727 7.727 0 010-15.454h40.343a7.727 7.727 0 010 15.454zM287.057 32.959c-5.532-3.636-4.191-12.525 2.771-14.001 4.736-.977 9.242 2.691 9.242 7.572 0 3.589-2.477 6.806-6.223 7.583-.494.092-4.217-.09-5.79-1.154zM97.77 58.386c-3.674-2.51-4.433-7.304-2.132-10.715 4.089-6.211 14.145-3.457 14.145 4.286 0 3.737-2.687 6.912-6.213 7.572-.963.202-4.018.028-5.8-1.143z"/></g><path d="M97.77 85.688c-3.674-2.51-4.433-7.304-2.132-10.715 3.204-4.983 11.083-4.536 13.558 1.329 1.17 2.765.59 6.159-1.669 8.417-1.842 1.842-6.587 3.052-9.757.969z" fill="#f9d698"/><path d="M97.77 112.978c-5.099-3.351-4.404-11.132 1.329-13.558 8.094-3.163 14.221 6.808 8.428 12.6-2.009 2.009-6.327 3.302-9.757.958z" fill="#666"/><path d="M263.357 114.163h-20.676a3.457 3.457 0 01-3.446-3.446V90.04a3.457 3.457 0 013.446-3.446h20.676a3.457 3.457 0 013.446 3.446v20.676a3.455 3.455 0 01-3.446 3.447z" fill="#70b5e8"/><path d="M312.034 114.163h-20.676a3.457 3.457 0 01-3.446-3.446V90.04a3.457 3.457 0 013.446-3.446h20.676a3.457 3.457 0 013.446 3.446v20.676a3.457 3.457 0 01-3.446 3.447z" fill="#efefef"/><path d="M360.71 114.163h-20.676a3.457 3.457 0 01-3.446-3.446V90.04a3.457 3.457 0 013.446-3.446h20.676a3.457 3.457 0 013.446 3.446v20.676a3.457 3.457 0 01-3.446 3.447z" fill="#92b620"/><path d="M409.386 114.163H388.71a3.457 3.457 0 01-3.446-3.446V90.04a3.457 3.457 0 013.446-3.446h20.676a3.457 3.457 0 013.446 3.446v20.676a3.457 3.457 0 01-3.446 3.447z" fill="#898989"/><path d="M263.357 163.319h-20.676a3.457 3.457 0 01-3.446-3.446v-20.676a3.457 3.457 0 013.446-3.446h20.676a3.457 3.457 0 013.446 3.446v20.676a3.455 3.455 0 01-3.446 3.446z" fill="#92b620"/><path d="M312.034 163.319h-20.676a3.457 3.457 0 01-3.446-3.446v-20.676a3.457 3.457 0 013.446-3.446h20.676a3.457 3.457 0 013.446 3.446v20.676a3.457 3.457 0 01-3.446 3.446z" fill="#898989"/><path d="M360.71 163.319h-20.676a3.457 3.457 0 01-3.446-3.446v-20.676a3.457 3.457 0 013.446-3.446h20.676a3.457 3.457 0 013.446 3.446v20.676a3.457 3.457 0 01-3.446 3.446z" fill="#70b5e8"/><path d="M409.386 163.319H388.71a3.457 3.457 0 01-3.446-3.446v-20.676a3.457 3.457 0 013.446-3.446h20.676a3.457 3.457 0 013.446 3.446v20.676a3.457 3.457 0 01-3.446 3.446z" fill="#f94a46"/><path d="M263.357 213.114h-20.676a3.457 3.457 0 01-3.446-3.446v-20.676a3.457 3.457 0 013.446-3.446h20.676a3.457 3.457 0 013.446 3.446v20.676a3.455 3.455 0 01-3.446 3.446z" fill="#dda36f"/><path d="M312.034 213.114h-20.676a3.457 3.457 0 01-3.446-3.446v-20.676a3.457 3.457 0 013.446-3.446h20.676a3.457 3.457 0 013.446 3.446v20.676a3.457 3.457 0 01-3.446 3.446z" fill="#f9d698"/><path d="M360.71 213.114h-20.676a3.457 3.457 0 01-3.446-3.446v-20.676a3.457 3.457 0 013.446-3.446h20.676a3.457 3.457 0 013.446 3.446v20.676a3.457 3.457 0 01-3.446 3.446z" fill="#898989"/><path d="M409.386 213.114H388.71a3.457 3.457 0 01-3.446-3.446v-20.676a3.457 3.457 0 013.446-3.446h20.676a3.457 3.457 0 013.446 3.446v20.676a3.457 3.457 0 01-3.446 3.446z" fill="#f9d698"/><g fill="#70b5e8"><path d="M263.357 262.27h-20.676a3.457 3.457 0 01-3.446-3.446v-20.676a3.457 3.457 0 013.446-3.446h20.676a3.457 3.457 0 013.446 3.446v20.676a3.455 3.455 0 01-3.446 3.446zM312.034 262.27h-20.676a3.457 3.457 0 01-3.446-3.446v-20.676a3.457 3.457 0 013.446-3.446h20.676a3.457 3.457 0 013.446 3.446v20.676a3.457 3.457 0 01-3.446 3.446z"/></g><path d="M360.71 262.27h-20.676a3.457 3.457 0 01-3.446-3.446v-20.676a3.457 3.457 0 013.446-3.446h20.676a3.457 3.457 0 013.446 3.446v20.676a3.457 3.457 0 01-3.446 3.446z" fill="#f94a46"/><path d="M263.357 311.426h-20.676a3.457 3.457 0 01-3.446-3.446v-20.676a3.457 3.457 0 013.446-3.446h20.676a3.457 3.457 0 013.446 3.446v20.676a3.455 3.455 0 01-3.446 3.446z" fill="#efefef"/><path d="M312.034 311.426h-20.676a3.457 3.457 0 01-3.446-3.446v-20.676a3.457 3.457 0 013.446-3.446h20.676a3.457 3.457 0 013.446 3.446v20.676a3.457 3.457 0 01-3.446 3.446z" fill="#92b620"/><path d="M360.71 311.426h-20.676a3.457 3.457 0 01-3.446-3.446v-20.676a3.457 3.457 0 013.446-3.446h20.676a3.457 3.457 0 013.446 3.446v20.676a3.457 3.457 0 01-3.446 3.446z" fill="#898989"/><path d="M409.386 262.27H388.71a3.457 3.457 0 01-3.446-3.446v-20.676a3.457 3.457 0 013.446-3.446h20.676a3.457 3.457 0 013.446 3.446v20.676a3.457 3.457 0 01-3.446 3.446z" fill="#ffb70d"/><path d="M263.358 463.095h-20.676a3.457 3.457 0 01-3.446-3.446v-20.676a3.457 3.457 0 013.446-3.446h20.676a3.457 3.457 0 013.446 3.446v20.676a3.457 3.457 0 01-3.446 3.446z" fill="#92b620"/><path d="M312.034 463.095h-20.676a3.457 3.457 0 01-3.446-3.446v-20.676a3.457 3.457 0 013.446-3.446h20.676a3.457 3.457 0 013.446 3.446v20.676a3.457 3.457 0 01-3.446 3.446z" fill="#70b5e8"/><path d="M360.71 463.095h-20.676a3.457 3.457 0 01-3.446-3.446v-20.676a3.457 3.457 0 013.446-3.446h20.676a3.457 3.457 0 013.446 3.446v20.676a3.457 3.457 0 01-3.446 3.446z" fill="#92b620"/><path d="M409.386 463.095H388.71a3.457 3.457 0 01-3.446-3.446v-20.676a3.457 3.457 0 013.446-3.446h20.676a3.457 3.457 0 013.446 3.446v20.676a3.457 3.457 0 01-3.446 3.446z" fill="#efefef"/></svg><svg viewBox="0 0 504.123 504.123" id="macbook" xmlns="http://www.w3.org/2000/svg"><path d="M504.123 382.03v7.877c0 12.997-10.634 23.631-23.631 23.631H23.631C10.634 413.537 0 402.904 0 389.907v-7.877h504.123z" fill="#e4e7e7"/><path d="M216.615 374.153h70.892c6.695 0 11.815 5.12 11.815 11.815s-5.12 11.815-11.815 11.815h-70.892c-6.695 0-11.815-5.12-11.815-11.815 0-6.301 5.12-11.815 11.815-11.815z" fill="#c8cbcb"/><path d="M63.015 90.584h378.092c8.665 0 15.754 7.089 15.754 15.754V382.03h-409.6V106.337c.001-8.664 7.09-15.753 15.754-15.753z" fill="#36434f"/><path d="M70.892 114.214H433.23v244.185H70.892V114.214z" fill="#465765"/><path d="M157.538 326.891h189.046c12.997 0 23.631 10.634 23.631 23.631v7.877H133.908v-7.877c0-12.997 10.634-23.631 23.63-23.631z" fill="#7e8a94"/><path d="M181.169 311.137c8.665 0 15.754 7.089 15.754 15.754s-7.089 15.754-15.754 15.754-15.754-7.089-15.754-15.754 7.09-15.754 15.754-15.754z" fill="#e4e7e7"/><path d="M228.431 311.137c8.665 0 15.754 7.089 15.754 15.754s-7.089 15.754-15.754 15.754-15.754-7.089-15.754-15.754 7.089-15.754 15.754-15.754z" fill="#efc75e"/><path d="M275.692 311.137c8.665 0 15.754 7.089 15.754 15.754s-7.089 15.754-15.754 15.754-15.754-7.089-15.754-15.754 7.09-15.754 15.754-15.754zm47.262 0c8.665 0 15.754 7.089 15.754 15.754s-7.089 15.754-15.754 15.754-15.754-7.089-15.754-15.754 7.089-15.754 15.754-15.754z" fill="#e4e7e7"/></svg><svg viewBox="0 0 473.806 473.806" id="phone-call" xmlns="http://www.w3.org/2000/svg"><path d="M374.456 293.506c-9.7-10.1-21.4-15.5-33.8-15.5-12.3 0-24.1 5.3-34.2 15.4l-31.6 31.5c-2.6-1.4-5.2-2.7-7.7-4-3.6-1.8-7-3.5-9.9-5.3-29.6-18.8-56.5-43.3-82.3-75-12.5-15.8-20.9-29.1-27-42.6 8.2-7.5 15.8-15.3 23.2-22.8 2.8-2.8 5.6-5.7 8.4-8.5 21-21 21-48.2 0-69.2l-27.3-27.3c-3.1-3.1-6.3-6.3-9.3-9.5-6-6.2-12.3-12.6-18.8-18.6-9.7-9.6-21.3-14.7-33.5-14.7s-24 5.1-34 14.7l-.2.2-34 34.3c-12.8 12.8-20.1 28.4-21.7 46.5-2.4 29.2 6.2 56.4 12.8 74.2 16.2 43.7 40.4 84.2 76.5 127.6 43.8 52.3 96.5 93.6 156.7 122.7 23 10.9 53.7 23.8 88 26 2.1.1 4.3.2 6.3.2 23.1 0 42.5-8.3 57.7-24.8.1-.2.3-.3.4-.5 5.2-6.3 11.2-12 17.5-18.1 4.3-4.1 8.7-8.4 13-12.9 9.9-10.3 15.1-22.3 15.1-34.6 0-12.4-5.3-24.3-15.4-34.3l-54.9-55.1zm35.8 105.3c-.1 0-.1.1 0 0-3.9 4.2-7.9 8-12.2 12.2-6.5 6.2-13.1 12.7-19.3 20-10.1 10.8-22 15.9-37.6 15.9-1.5 0-3.1 0-4.6-.1-29.7-1.9-57.3-13.5-78-23.4-56.6-27.4-106.3-66.3-147.6-115.6-34.1-41.1-56.9-79.1-72-119.9-9.3-24.9-12.7-44.3-11.2-62.6 1-11.7 5.5-21.4 13.8-29.7l34.1-34.1c4.9-4.6 10.1-7.1 15.2-7.1 6.3 0 11.4 3.8 14.6 7l.3.3c6.1 5.7 11.9 11.6 18 17.9 3.1 3.2 6.3 6.4 9.5 9.7l27.3 27.3c10.6 10.6 10.6 20.4 0 31-2.9 2.9-5.7 5.8-8.6 8.6-8.4 8.6-16.4 16.6-25.1 24.4-.2.2-.4.3-.5.5-8.6 8.6-7 17-5.2 22.7l.3.9c7.1 17.2 17.1 33.4 32.3 52.7l.1.1c27.6 34 56.7 60.5 88.8 80.8 4.1 2.6 8.3 4.7 12.3 6.7 3.6 1.8 7 3.5 9.9 5.3.4.2.8.5 1.2.7 3.4 1.7 6.6 2.5 9.9 2.5 8.3 0 13.5-5.2 15.2-6.9l34.2-34.2c3.4-3.4 8.8-7.5 15.1-7.5 6.2 0 11.3 3.9 14.4 7.3l.2.2 55.1 55.1c10.3 10.2 10.3 20.7.1 31.3zM256.056 112.706c26.2 4.4 50 16.8 69 35.8s31.3 42.8 35.8 69c1.1 6.6 6.8 11.2 13.3 11.2.8 0 1.5-.1 2.3-.2 7.4-1.2 12.3-8.2 11.1-15.6-5.4-31.7-20.4-60.6-43.3-83.5s-51.8-37.9-83.5-43.3c-7.4-1.2-14.3 3.7-15.6 11s3.5 14.4 10.9 15.6zM473.256 209.006c-8.9-52.2-33.5-99.7-71.3-137.5s-85.3-62.4-137.5-71.3c-7.3-1.3-14.2 3.7-15.5 11-1.2 7.4 3.7 14.3 11.1 15.6 46.6 7.9 89.1 30 122.9 63.7 33.8 33.8 55.8 76.3 63.7 122.9 1.1 6.6 6.8 11.2 13.3 11.2.8 0 1.5-.1 2.3-.2 7.3-1.1 12.3-8.1 11-15.4z"/></svg><svg viewBox="0 0 512 512" id="shopping-cart" xmlns="http://www.w3.org/2000/svg"><path d="M504.399 185.065c-6.761-8.482-16.904-13.348-27.83-13.348h-98.604L324.496 49.284c-3.315-7.591-12.157-11.06-19.749-7.743-7.592 3.315-11.059 12.158-7.743 19.75l48.225 110.427H166.771l48.225-110.427c3.315-7.592-.151-16.434-7.743-19.75-7.591-3.317-16.434.15-19.749 7.743l-53.469 122.434H35.431c-10.926 0-21.069 4.865-27.83 13.348C.964 193.394-1.485 204.1.882 214.442l52.657 230c3.677 16.06 17.884 27.276 34.549 27.276h335.824c16.665 0 30.872-11.216 34.549-27.276l52.657-230.001c2.367-10.342-.082-21.048-6.719-29.376zm-80.487 256.652H88.088c-2.547 0-4.778-1.67-5.305-3.972L30.126 207.747c-.413-1.805.28-3.163.936-3.984.608-.764 1.985-2.045 4.369-2.045h85.503l-3.929 8.997c-3.315 7.592.151 16.434 7.743 19.75a14.935 14.935 0 005.995 1.258c5.782 0 11.292-3.363 13.754-9l9.173-21.003h204.662l9.173 21.003c2.462 5.638 7.972 9 13.754 9 2.004 0 4.041-.404 5.995-1.258 7.592-3.315 11.059-12.158 7.743-19.75l-3.929-8.997h85.503c2.384 0 3.761 1.281 4.369 2.045.655.822 1.349 2.18.936 3.983l-52.657 230c-.528 2.301-2.76 3.971-5.307 3.971z"/><path d="M166 266.717c-8.284 0-15 6.716-15 15v110c0 8.284 6.716 15 15 15s15-6.716 15-15v-110c0-8.284-6.715-15-15-15zM256 266.717c-8.284 0-15 6.716-15 15v110c0 8.284 6.716 15 15 15s15-6.716 15-15v-110c0-8.284-6.716-15-15-15zM346 266.717c-8.284 0-15 6.716-15 15v110c0 8.284 6.716 15 15 15s15-6.716 15-15v-110c-.001-8.284-6.716-15-15-15z"/></svg><svg viewBox="0 0 480 480" id="user" xmlns="http://www.w3.org/2000/svg"><path d="M240 0C107.664 0 0 107.664 0 240c0 57.96 20.656 111.184 54.992 152.704.088.12.096.272.192.384 24.792 29.896 55.928 52.816 90.624 67.624.4.168.792.352 1.192.52 2.808 1.184 5.648 2.28 8.496 3.352 1.12.424 2.24.856 3.376 1.264 2.456.88 4.928 1.712 7.416 2.512 1.592.512 3.184 1.016 4.792 1.496 2.2.656 4.408 1.288 6.632 1.888 1.952.528 3.92 1.016 5.888 1.488 1.992.48 3.992.96 6 1.384 2.24.48 4.504.904 6.776 1.32 1.824.336 3.64.688 5.48.984 2.52.408 5.056.728 7.6 1.056 1.64.208 3.272.448 4.92.624 2.88.304 5.784.52 8.696.72 1.352.096 2.696.24 4.056.312 4.248.24 8.544.368 12.872.368s8.624-.128 12.888-.352c1.36-.072 2.704-.216 4.056-.312 2.912-.208 5.816-.416 8.696-.72 1.648-.176 3.28-.416 4.92-.624 2.544-.328 5.08-.648 7.6-1.056 1.832-.296 3.656-.648 5.48-.984 2.264-.416 4.528-.84 6.776-1.32 2.008-.432 4-.904 6-1.384 1.968-.48 3.936-.968 5.888-1.488a232.661 232.661 0 0011.424-3.384c2.488-.8 4.96-1.632 7.416-2.512 1.128-.408 2.248-.84 3.376-1.264a243.168 243.168 0 008.496-3.352c.4-.168.792-.352 1.192-.52a239.997 239.997 0 0090.624-67.624c.096-.112.104-.272.192-.384C459.344 351.184 480 297.96 480 240 480 107.664 372.336 0 240 0zm97.256 441.76c-.12.056-.232.12-.352.176-2.856 1.376-5.76 2.672-8.688 3.936-.664.28-1.32.568-1.984.848a217.023 217.023 0 01-7.76 3.064 159.85 159.85 0 01-3.272 1.192 230.572 230.572 0 01-6.976 2.368c-1.456.464-2.92.904-4.384 1.336a202.08 202.08 0 01-6.28 1.784c-1.776.472-3.568.904-5.36 1.328-1.88.448-3.752.904-5.648 1.304-2.072.44-4.16.816-6.24 1.192-1.688.312-3.368.64-5.072.912-2.344.368-4.712.664-7.072.96-1.496.192-2.984.416-4.496.576-2.696.288-5.416.472-8.128.664-1.208.08-2.408.216-3.632.28-3.96.208-7.928.32-11.912.32s-7.952-.112-11.904-.32c-1.216-.064-2.416-.192-3.632-.28-2.72-.184-5.432-.376-8.128-.664-1.512-.16-3-.384-4.496-.576-2.36-.296-4.728-.592-7.072-.96-1.704-.272-3.384-.6-5.072-.912-2.088-.376-4.176-.76-6.24-1.192-1.896-.4-3.776-.856-5.648-1.304-1.792-.432-3.584-.856-5.36-1.328-2.104-.56-4.2-1.168-6.28-1.784a212.543 212.543 0 01-4.384-1.336 223.256 223.256 0 01-6.976-2.368 217.023 217.023 0 01-11.032-4.256c-.664-.272-1.312-.56-1.976-.84a223.812 223.812 0 01-8.696-3.936 7.216 7.216 0 01-.352-.176c-27.912-13.504-52.568-32.672-72.576-55.952 15.464-56.944 59.24-102.848 115.56-121.112 1.112.68 2.272 1.288 3.416 1.928.672.376 1.336.776 2.016 1.136a99.592 99.592 0 007.272 3.512c1.896.832 3.856 1.536 5.808 2.256.384.136.768.288 1.152.424 10.848 3.84 22.456 6.04 34.6 6.04s23.752-2.2 34.592-6.04c.384-.136.768-.288 1.152-.424 1.952-.72 3.912-1.424 5.808-2.256a99.592 99.592 0 007.272-3.512c.68-.368 1.344-.76 2.016-1.136 1.144-.64 2.312-1.248 3.432-1.936 56.32 18.272 100.088 64.176 115.56 121.112-20.008 23.272-44.664 42.44-72.576 55.952zM152 176c0-48.52 39.48-88 88-88s88 39.48 88 88c0 30.864-16.008 58.024-40.128 73.736a84.742 84.742 0 01-9.8 5.48c-.4.192-.792.392-1.192.576-23.168 10.536-50.592 10.536-73.76 0-.4-.184-.8-.384-1.192-.576a84.083 84.083 0 01-9.8-5.48C168.008 234.024 152 206.864 152 176zm269.832 194.584c-18.136-53.552-59.512-96.832-112.376-117.392C330.6 234.144 344 206.64 344 176c0-57.344-46.656-104-104-104s-104 46.656-104 104c0 30.64 13.4 58.144 34.552 77.192-52.864 20.568-94.24 63.84-112.376 117.392C31.672 333.792 16 288.704 16 240 16 116.488 116.488 16 240 16s224 100.488 224 224c0 48.704-15.672 93.792-42.168 130.584z"/></svg></svg>