<svg id="Capa_1" enable-background="new 0 0 512.798 512.798" height="512" viewBox="0 0 512.798 512.798" width="512" xmlns="http://www.w3.org/2000/svg"><g><path d="m474.312 77.5h-90v-70h45 45z" fill="#eefaff"/><path d="m474.309 57.5v20h-90v-70h30v43c0 3.866 3.134 7 7 7z" fill="#dff1f7"/><path d="m489.312 317.5h-120c-8.284 0-15-6.716-15-15v-225h150v225c0 8.284-6.716 15-15 15z" fill="#548eb5"/><path d="m419.309 317.5h-50c-8.28 0-15-6.72-15-15v-225h50v225c0 8.28 6.72 15 15 15z" fill="#447d99"/><path d="m354.312 77.5h150v66.725h-150z" fill="#fdf172"/><path d="m354.309 77.5h50v66.72h-50z" fill="#fde800"/><path d="m203.486 255.298h-180c-8.284 0-15 6.716-15 15v150c0 8.284 6.716 15 15 15h180c8.284 0 15-6.716 15-15v-150c0-8.285-6.716-15-15-15z" fill="#548eb5"/><path d="m93.489 435.3h-70c-8.29 0-15-6.72-15-15v-150c0-8.29 6.71-15 15-15h70c-8.29 0-15 6.71-15 15v150c0 8.28 6.71 15 15 15z" fill="#447d99"/><path d="m92.986 250.798h41v130h-41z" fill="#fdf172" transform="matrix(0 -1 1 0 -202.312 429.283)"/><path d="m48.489 295.3h30v41h-30z" fill="#fde800"/><path d="m188.486 435.298h-150v70h75 75z" fill="#eefaff"/><path d="m188.489 435.3v20h-93c-3.866 0-7 3.134-7 7v43h-50v-70z" fill="#dff1f7"/><g><path d="m399.312 475.621h-82.913c-27.57 0-50-22.43-50-50v-318.121c0-5.514-4.486-10-10-10h-112.913c-5.514 0-10 4.486-10 10v92.798h-40v-92.798c0-27.57 22.43-50 50-50h112.913c27.57 0 50 22.43 50 50v318.121c0 5.514 4.486 10 10 10h82.913c5.514 0 10-4.486 10-10v-51.621h40v51.621c0 27.57-22.43 50-50 50z" fill="#c9ebfa"/></g><path d="m75.986 180.298h75v75h-75z" fill="#548eb5"/><path d="m150.989 235.3v20h-75v-75h30v48c0 3.866 3.134 7 7 7z" fill="#447d99"/><path d="m451.812 394h-45c-8.284 0-15-6.716-15-15v-60h75v60c0 8.284-6.716 15-15 15z" fill="#548eb5"/><path d="m466.809 319v20h-38c-3.866 0-7 3.134-7 7v48h-15c-8.284 0-15-6.716-15-15v-60z" fill="#447d99"/><g><g><path d="m407.25 40.25h15v15h-15z"/><path d="m436.375 40.25h15v15h-15z"/></g><g><path d="m40.989 295.3v41c0 4.142 3.357 7.5 7.5 7.5h48.65c4.143 0 7.5-3.358 7.5-7.5s-3.357-7.5-7.5-7.5h-41.15v-26h115v26h-41.16c-4.143 0-7.5 3.358-7.5 7.5s3.357 7.5 7.5 7.5h48.66c4.143 0 7.5-3.358 7.5-7.5v-41c0-4.142-3.357-7.5-7.5-7.5h-130c-4.143 0-7.5 3.358-7.5 7.5z"/><path d="m504.312 70h-22.5v-62.5c0-4.142-3.357-7.5-7.5-7.5h-90c-4.143 0-7.5 3.358-7.5 7.5v62.5h-22.5c-4.143 0-7.5 3.358-7.5 7.5v225c0 12.407 10.094 22.5 22.5 22.5h15v54c0 10.687 7.492 19.651 17.497 21.932v24.688c0 1.378-1.121 2.5-2.5 2.5h-82.91c-1.379 0-2.5-1.122-2.5-2.5v-318.12c0-31.706-25.794-57.5-57.5-57.5h-112.91c-31.706 0-57.5 25.794-57.5 57.5v65.298h-10.003c-4.143 0-7.5 3.358-7.5 7.5v67.5h-45c-12.406 0-22.5 10.093-22.5 22.5v150c0 12.407 10.094 22.5 22.5 22.5h7.5v62.5c0 4.142 3.357 7.5 7.5 7.5h150c4.143 0 7.5-3.358 7.5-7.5v-62.5h7.5c12.406 0 22.5-10.093 22.5-22.5v-150c0-12.407-10.094-22.5-22.5-22.5h-45v-67.5c0-4.142-3.357-7.5-7.5-7.5h-9.997v-65.298c0-1.378 1.121-2.5 2.5-2.5h112.91c1.379 0 2.5 1.122 2.5 2.5v85.36c0 4.142 3.357 7.5 7.5 7.5s7.5-3.358 7.5-7.5v-85.36c0-9.649-7.851-17.5-17.5-17.5h-112.91c-9.649 0-17.5 7.851-17.5 17.5v65.298h-25v-65.298c0-23.435 19.065-42.5 42.5-42.5h112.91c23.435 0 42.5 19.065 42.5 42.5v318.12c0 9.649 7.851 17.5 17.5 17.5h82.91c9.649 0 17.5-7.851 17.5-17.5v-24.12h25v24.12c0 23.435-19.065 42.5-42.5 42.5h-82.91c-23.435 0-42.5-19.065-42.5-42.5v-200.08c0-4.142-3.357-7.5-7.5-7.5s-7.5 3.358-7.5 7.5v200.08c0 31.706 25.794 57.5 57.5 57.5h82.91c31.706 0 57.5-25.794 57.5-57.5v-24.686c10.008-2.279 17.503-11.245 17.503-21.934v-54h15c12.406 0 22.5-10.093 22.5-22.5v-225c0-4.142-3.357-7.5-7.5-7.5zm-323.326 427.798h-36v-27.5c0-4.142-3.357-7.5-7.5-7.5s-7.5 3.358-7.5 7.5v27.5h-33v-27.5c0-4.142-3.357-7.5-7.5-7.5s-7.5 3.358-7.5 7.5v27.5h-36v-55h135zm30-227.5v150c0 4.136-3.364 7.5-7.5 7.5h-180c-4.136 0-7.5-3.364-7.5-7.5v-150c0-4.136 3.364-7.5 7.5-7.5h180c4.136 0 7.5 3.364 7.5 7.5zm-67.5-22.5h-60v-60h60zm315.826 131.202c0 4.136-3.364 7.5-7.5 7.5h-45c-4.136 0-7.5-3.364-7.5-7.5v-52.5h60zm-67.5-364h75v55h-75zm97.5 295h-120c-4.136 0-7.5-3.364-7.5-7.5v-150.78h73.217c4.143 0 7.5-3.358 7.5-7.5s-3.357-7.5-7.5-7.5h-73.217v-51.72h135v51.72h-29.093c-4.143 0-7.5 3.358-7.5 7.5s3.357 7.5 7.5 7.5h29.093v150.78c0 4.136-3.364 7.5-7.5 7.5z"/></g></g></g></svg>